<?xml version="1.0" standalone="no"?>
<!DOCTYPE svg PUBLIC "-//W3C//DTD SVG 20010904//EN"
 "http://www.w3.org/TR/2001/REC-SVG-20010904/DTD/svg10.dtd">
<svg version="1.0" xmlns="http://www.w3.org/2000/svg"
 width="485.000000pt" height="485.000000pt" viewBox="0 0 485.000000 485.000000"
 preserveAspectRatio="xMidYMid meet">
<metadata>
Created by potrace 1.11, written by Peter Selinger 2001-2013
</metadata>
<g transform="translate(0.000000,485.000000) scale(0.100000,-0.100000)"
fill="#000000" stroke="none">
<path d="M2230 4530 c-342 -91 -574 -404 -565 -760 5 -191 -39 -94 697 -1537
34 -67 63 -121 64 -120 2 2 116 227 414 812 90 176 187 367 217 425 105 205
133 311 128 475 -10 318 -212 582 -530 696 -90 32 -320 37 -425 9z m360 -320
c225 -96 336 -335 260 -561 -82 -241 -346 -368 -584 -279 -242 91 -358 383
-244 618 54 112 164 204 288 239 70 20 213 11 280 -17z"/>
<path d="M907 3033 c-7 -12 -907 -2715 -907 -2725 0 -4 1091 -8 2425 -8 1934
0 2425 3 2424 13 0 6 -204 622 -452 1367 l-452 1355 -360 0 -360 0 -77 -150
c-43 -82 -77 -153 -78 -157 0 -5 146 -8 324 -8 l324 0 11 -32 c6 -17 79 -236
162 -485 171 -511 161 -448 81 -535 l-35 -36 52 -53 c29 -29 68 -74 87 -100
23 -32 40 -46 52 -43 14 4 37 -56 154 -407 76 -227 136 -415 133 -417 -5 -5
-3975 -5 -3980 0 -3 2 62 203 143 446 122 369 150 441 163 437 13 -4 36 25 93
115 43 67 79 127 82 133 2 7 -8 20 -23 30 -71 43 -79 -3 87 493 l150 449 325
3 c179 1 325 6 325 10 -1 4 -35 75 -78 157 l-77 150 -357 3 c-196 1 -359 -1
-361 -5z"/>
<path d="M3107 2194 c-1 -1 -24 -5 -52 -8 -66 -9 -208 -45 -219 -56 -7 -7 27
-130 79 -287 3 -8 23 -6 75 7 39 10 94 21 123 25 90 11 88 10 83 68 -3 29 -8
95 -12 147 -3 52 -8 98 -11 103 -3 6 -59 7 -66 1z"/>
<path d="M3517 2163 c-5 -17 -11 -46 -22 -103 -3 -14 -12 -60 -21 -103 -8 -43
-14 -80 -12 -81 2 -1 38 -12 81 -24 43 -12 100 -33 128 -46 l50 -24 28 56 c16
31 48 94 72 140 23 45 40 84 38 85 -17 14 -130 59 -195 80 -124 39 -141 41
-147 20z"/>
<path d="M2470 1978 c-105 -62 -225 -132 -228 -134 -2 -1 9 -24 23 -51 15 -26
48 -85 72 -130 25 -46 48 -85 53 -88 4 -2 45 18 91 46 46 28 99 59 119 69 69
37 69 26 -6 174 -38 75 -73 136 -79 135 -5 0 -26 -10 -45 -21z"/>
<path d="M1880 1684 c-58 -18 -116 -35 -130 -38 -44 -10 -49 -18 -40 -61 21
-107 52 -250 56 -254 13 -13 331 89 327 106 -1 4 -26 69 -55 144 l-54 136
-104 -33z"/>
<path d="M1116 1502 c-21 -75 -39 -141 -40 -146 -2 -17 166 -52 287 -60 l67
-4 1 81 c0 45 1 115 2 155 1 41 0 75 -3 77 -3 1 -42 6 -87 9 -44 4 -96 11
-114 16 -72 21 -70 23 -113 -128z"/>
</g>
</svg>
